<svg width="20" height="20" viewBox="0 0 20 20" fill="none" xmlns="http://www.w3.org/2000/svg">
<path d="M9.632 11.184L9.48 7.184H10.728L10.576 11.184H9.632ZM10.104 13.088C9.90667 13.088 9.73867 13.016 9.6 12.872C9.46133 12.728 9.392 12.5573 9.392 12.36C9.392 12.1573 9.46133 11.9867 9.6 11.848C9.73867 11.704 9.90667 11.632 10.104 11.632C10.296 11.632 10.4613 11.704 10.6 11.848C10.7387 11.9867 10.808 12.1573 10.808 12.36C10.808 12.5573 10.7387 12.728 10.6 12.872C10.4613 13.016 10.296 13.088 10.104 13.088Z" fill="#2C66CD"/>
<rect x="0.5" y="0.5" width="19" height="19" rx="9.5" stroke="#0047B0"/>
</svg>
