<svg width="10" height="13" viewBox="0 0 10 13" fill="none" xmlns="http://www.w3.org/2000/svg">
<path d="M1 1.19995H5.5C5.8283 1.19995 6.15339 1.26462 6.45671 1.39025C6.76002 1.51589 7.03562 1.70004 7.26777 1.93218C7.49991 2.16433 7.68406 2.43993 7.8097 2.74324C7.93534 3.04656 8 3.37165 8 3.69995C8 4.02826 7.93534 4.35335 7.8097 4.65666C7.68406 4.95997 7.49991 5.23557 7.26777 5.46772C7.03562 5.69986 6.76002 5.88401 6.45671 6.00965C6.15339 6.13529 5.8283 6.19995 5.5 6.19995H1V1.19995Z" stroke="#444444" stroke-width="2" stroke-linecap="round" stroke-linejoin="round"/>
<path d="M1 6.19995H6.5C7.16304 6.19995 7.79893 6.46334 8.26777 6.93218C8.73661 7.40103 9 8.03691 9 8.69995C9 9.36299 8.73661 9.99888 8.26777 10.4677C7.79893 10.9366 7.16304 11.2 6.5 11.2H1V6.19995Z" stroke="#444444" stroke-width="2" stroke-linecap="round" stroke-linejoin="round"/>
</svg>
