<svg width="17" height="18" viewBox="0 0 17 18" fill="none" xmlns="http://www.w3.org/2000/svg">
<path d="M0.293408 15.2931L6.58641 9.00008L0.293408 2.70708C0.111249 2.51848 0.0104547 2.26588 0.0127331 2.00368C0.0150115 1.74148 0.120181 1.49067 0.305589 1.30526C0.490997 1.11985 0.741809 1.01469 1.00401 1.01241C1.2662 1.01013 1.5188 1.11092 1.70741 1.29308L8.00041 7.58608L14.2934 1.29308C14.3857 1.19757 14.496 1.12139 14.618 1.06898C14.74 1.01657 14.8712 0.988985 15.004 0.987831C15.1368 0.986677 15.2685 1.01198 15.3914 1.06226C15.5143 1.11254 15.6259 1.18679 15.7198 1.28069C15.8137 1.37458 15.8879 1.48623 15.9382 1.60913C15.9885 1.73202 16.0138 1.8637 16.0127 1.99648C16.0115 2.12926 15.9839 2.26048 15.9315 2.38249C15.8791 2.50449 15.8029 2.61483 15.7074 2.70708L9.41441 9.00008L15.7074 15.2931C15.8029 15.3853 15.8791 15.4957 15.9315 15.6177C15.9839 15.7397 16.0115 15.8709 16.0127 16.0037C16.0138 16.1365 15.9885 16.2681 15.9382 16.391C15.8879 16.5139 15.8137 16.6256 15.7198 16.7195C15.6259 16.8134 15.5143 16.8876 15.3914 16.9379C15.2685 16.9882 15.1368 17.0135 15.004 17.0123C14.8712 17.0112 14.74 16.9836 14.618 16.9312C14.496 16.8788 14.3857 16.8026 14.2934 16.7071L8.00041 10.4141L1.70741 16.7071C1.5188 16.8892 1.2662 16.99 1.00401 16.9878C0.741809 16.9855 0.490997 16.8803 0.305589 16.6949C0.120181 16.5095 0.0150115 16.2587 0.0127331 15.9965C0.0104547 15.7343 0.111249 15.4817 0.293408 15.2931Z" fill="#343434"/>
</svg>
