<svg width="44" height="40" viewBox="0 0 44 40" fill="none" xmlns="http://www.w3.org/2000/svg">
<path d="M44 22.0001V38.0001C44 38.5305 43.7893 39.0392 43.4142 39.4143C43.0391 39.7893 42.5304 40.0001 42 40.0001H2C1.46957 40.0001 0.960859 39.7893 0.585786 39.4143C0.210714 39.0392 0 38.5305 0 38.0001V22.0001C0 21.4696 0.210714 20.9609 0.585786 20.5858C0.960859 20.2108 1.46957 20.0001 2 20.0001C2.53043 20.0001 3.03914 20.2108 3.41421 20.5858C3.78929 20.9609 4 21.4696 4 22.0001V36.0001H40V22.0001C40 21.4696 40.2107 20.9609 40.5858 20.5858C40.9609 20.2108 41.4696 20.0001 42 20.0001C42.5304 20.0001 43.0391 20.2108 43.4142 20.5858C43.7893 20.9609 44 21.4696 44 22.0001ZM22 32.0001C22.5304 32.0001 23.0391 31.7893 23.4142 31.4143C23.7893 31.0392 24 30.5305 24 30.0001V6.82806L28.586 11.4141C28.9632 11.7784 29.4684 11.98 29.9928 11.9754C30.5172 11.9709 31.0188 11.7605 31.3896 11.3897C31.7605 11.0189 31.9708 10.5173 31.9753 9.99286C31.9799 9.46847 31.7783 8.96327 31.414 8.58606L23.414 0.586061C23.0389 0.211119 22.5303 0.000488281 22 0.000488281C21.4697 0.000488281 20.9611 0.211119 20.586 0.586061L12.586 8.58606C12.395 8.77056 12.2426 8.99124 12.1378 9.23525C12.033 9.47926 11.9778 9.7417 11.9755 10.0073C11.9732 10.2728 12.0238 10.5362 12.1244 10.782C12.2249 11.0278 12.3734 11.2511 12.5612 11.4389C12.749 11.6266 12.9723 11.7751 13.2181 11.8757C13.4639 11.9763 13.7272 12.0269 13.9928 12.0246C14.2584 12.0223 14.5208 11.9671 14.7648 11.8623C15.0088 11.7574 15.2295 11.6051 15.414 11.4141L20 6.82806V30.0001C20 30.5305 20.2107 31.0392 20.5858 31.4143C20.9609 31.7893 21.4696 32.0001 22 32.0001Z" fill="#3C3C3C"/>
</svg>
