<svg width="11" height="20" viewBox="0 0 11 20" fill="none" xmlns="http://www.w3.org/2000/svg">
<path d="M11 1C11 0.4477 10.5523 0 10 0H8C6.6739 0 5.4021 0.5268 4.4645 1.4645C3.5268 2.4021 3 3.6739 3 5V8H1C0.4477 8 0 8.4477 0 9V11C0 11.5523 0.4477 12 1 12H3V19C3 19.5523 3.4477 20 4 20H6C6.5523 20 7 19.5523 7 19V12H9.2192C9.6781 12 10.0781 11.6877 10.1894 11.2425L10.6894 9.2425C10.8472 8.6114 10.3698 8 9.7192 8H7V5C7 4.7348 7.1054 4.4804 7.2929 4.2929C7.4804 4.1054 7.7348 4 8 4H10C10.5523 4 11 3.5523 11 3V1Z" fill="#3B5998"/>
</svg>
