<svg width="24" height="24" viewBox="0 0 24 24" fill="none" xmlns="http://www.w3.org/2000/svg">
<path d="M24 12.0704C23.9984 9.76422 23.3401 7.50678 22.1029 5.56521C20.8658 3.62364 19.1015 2.07919 17.019 1.11465C14.9365 0.150105 12.6228 -0.194166 10.3518 0.122577C8.08087 0.43932 5.94763 1.40382 4.20459 2.90193C2.46154 4.40005 1.18163 6.36907 0.516338 8.576C-0.148959 10.7829 -0.1718 13.1354 0.450518 15.3549C1.07284 17.5745 2.31426 19.5683 4.02789 21.1004C5.74152 22.6324 7.85561 23.6387 10.12 24V15.5607H7.12V12.0704H10.12V9.41488C10.12 6.39727 11.92 4.71747 14.66 4.71747C15.5581 4.73058 16.4539 4.81127 17.34 4.95888V7.97648H15.83C15.5694 7.93585 15.3029 7.95534 15.0509 8.03349C14.7989 8.11165 14.5678 8.24641 14.3751 8.4276C14.1825 8.6088 14.0333 8.83167 13.9388 9.07938C13.8444 9.32709 13.8072 9.59315 13.83 9.85746V12.1207H17.2L16.67 15.611H13.87V24.0502C16.7032 23.6007 19.2826 22.1452 21.1409 19.9476C22.9993 17.7499 24.0135 14.9554 24 12.0704Z" fill="#D8D8D8"/>
</svg>
