<svg width="18" height="19" viewBox="0 0 18 19" fill="none" xmlns="http://www.w3.org/2000/svg">
<path d="M15 3.19995H3V15.2H15V3.19995Z" stroke="#444444" stroke-width="2" stroke-linecap="round" stroke-linejoin="round"/>
<path d="M6 3.19995H5V15.2H6V3.19995Z" fill="#444444"/>
<path d="M13 3.19995H12V15.2H13V3.19995Z" fill="#444444"/>
<path d="M13 8.19995H5V10.2H13V8.19995Z" fill="#444444"/>
<path d="M6 5.19995H3V6.19995H6V5.19995Z" fill="#444444"/>
<path d="M6 7.19995H3V8.19995H6V7.19995Z" fill="#444444"/>
<path d="M6 10.2H3V11.2H6V10.2Z" fill="#444444"/>
<path d="M6 12.2H3V13.2H6V12.2Z" fill="#444444"/>
<path d="M15 5.19995H12V6.19995H15V5.19995Z" fill="#444444"/>
<path d="M15 7.19995H12V8.19995H15V7.19995Z" fill="#444444"/>
<path d="M15 10.2H12V11.2H15V10.2Z" fill="#444444"/>
<path d="M15 12.2H12V13.2H15V12.2Z" fill="#444444"/>
</svg>
