<svg width="12" height="11" viewBox="0 0 12 11" fill="none" xmlns="http://www.w3.org/2000/svg">
<path d="M9.5 1.5H12H9.5ZM9.5 1.5C9.5 2.05228 9.0523 2.5 8.5 2.5C7.94772 2.5 7.5 2.05228 7.5 1.5M9.5 1.5C9.5 0.94772 9.0523 0.5 8.5 0.5C7.94772 0.5 7.5 0.94772 7.5 1.5M0 1.5H7.5H0ZM9.5 9.5H12H9.5ZM9.5 9.5C9.5 10.0523 9.0523 10.5 8.5 10.5C7.94772 10.5 7.5 10.0523 7.5 9.5M9.5 9.5C9.5 8.9477 9.0523 8.5 8.5 8.5C7.94772 8.5 7.5 8.9477 7.5 9.5M0 9.5H7.5H0ZM4.5 5.5H12H4.5ZM4.5 5.5C4.5 6.05228 4.05228 6.5 3.5 6.5C2.94772 6.5 2.5 6.05228 2.5 5.5M4.5 5.5C4.5 4.94772 4.05228 4.5 3.5 4.5C2.94772 4.5 2.5 4.94772 2.5 5.5M0 5.5H2.5H0Z" fill="#343434"/>
</svg>
