<svg width="16" height="13" viewBox="0 0 16 13" fill="none" xmlns="http://www.w3.org/2000/svg">
<path d="M9 1.19995V11.2C9 11.4652 8.89464 11.7195 8.70711 11.9071C8.51957 12.0946 8.26522 12.2 8 12.2C7.73478 12.2 7.48043 12.0946 7.29289 11.9071C7.10536 11.7195 7 11.4652 7 11.2V7.19995H2V11.2C2 11.4652 1.89464 11.7195 1.70711 11.9071C1.51957 12.0946 1.26522 12.2 1 12.2C0.734784 12.2 0.48043 12.0946 0.292893 11.9071C0.105357 11.7195 0 11.4652 0 11.2V1.19995C0 0.934735 0.105357 0.680381 0.292893 0.492844C0.48043 0.305308 0.734784 0.199951 1 0.199951C1.26522 0.199951 1.51957 0.305308 1.70711 0.492844C1.89464 0.680381 2 0.934735 2 1.19995V5.19995H7V1.19995C7 0.934735 7.10536 0.680381 7.29289 0.492844C7.48043 0.305308 7.73478 0.199951 8 0.199951C8.26522 0.199951 8.51957 0.305308 8.70711 0.492844C8.89464 0.680381 9 0.934735 9 1.19995ZM15.0679 10.409H13.9897V4.79858C14.0003 4.71661 13.9919 4.63331 13.9652 4.55508C13.9386 4.47685 13.8943 4.40577 13.8359 4.34731C13.7775 4.28884 13.7064 4.24454 13.6282 4.21781C13.55 4.19108 13.4667 4.18263 13.3848 4.19311H12.7573C12.6189 4.18876 12.4812 4.21287 12.3525 4.26393C12.2238 4.315 12.107 4.39194 12.0093 4.48999L10.645 5.76636C10.5783 5.81547 10.5236 5.87919 10.4853 5.95264C10.447 6.0261 10.4259 6.10735 10.4238 6.19017C10.4217 6.273 10.4385 6.35522 10.4731 6.43054C10.5076 6.50587 10.5589 6.5723 10.623 6.62476L10.9091 6.93238C10.957 6.99859 11.0192 7.05305 11.0912 7.09165C11.1632 7.13025 11.243 7.15197 11.3246 7.15517C11.4063 7.15837 11.4875 7.14296 11.5623 7.11011C11.6371 7.07727 11.7034 7.02784 11.7563 6.96558L11.8554 6.87769C11.9562 6.7754 12.038 6.65604 12.0971 6.52515H12.1196C12.1196 6.52515 12.1083 6.83374 12.1083 7.13062V10.409H11.041C10.959 10.3985 10.8757 10.4069 10.7975 10.4337C10.7193 10.4604 10.6483 10.5047 10.5898 10.5631C10.5314 10.6216 10.4872 10.6927 10.4605 10.7709C10.4338 10.8491 10.4255 10.9324 10.436 11.0144V11.4539C10.4255 11.5358 10.4338 11.6191 10.4605 11.6974C10.4872 11.7756 10.5314 11.8467 10.5898 11.9051C10.6483 11.9636 10.7193 12.0079 10.7975 12.0346C10.8757 12.0614 10.959 12.0698 11.041 12.0593H15.0679C15.1498 12.0698 15.2331 12.0614 15.3113 12.0346C15.3896 12.0079 15.4606 11.9636 15.519 11.9051C15.5774 11.8467 15.6217 11.7756 15.6483 11.6974C15.675 11.6191 15.6834 11.5358 15.6729 11.4539V11.0144C15.6834 10.9324 15.675 10.8491 15.6483 10.7709C15.6217 10.6927 15.5774 10.6216 15.519 10.5632C15.4606 10.5047 15.3896 10.4604 15.3114 10.4337C15.2331 10.4069 15.1499 10.3985 15.0679 10.409Z" fill="#444444"/>
</svg>
