<svg width="16" height="13" viewBox="0 0 16 13" fill="none" xmlns="http://www.w3.org/2000/svg">
<path d="M15.7397 11.0144V11.4539C15.7503 11.5358 15.7419 11.6191 15.7152 11.6974C15.6886 11.7756 15.6443 11.8467 15.5859 11.9051C15.5275 11.9636 15.4564 12.0079 15.3782 12.0346C15.3 12.0613 15.2167 12.0698 15.1348 12.0593H10.855C10.7712 12.0688 10.6863 12.06 10.6062 12.0335C10.5262 12.0071 10.4528 11.9636 10.3911 11.906C10.3294 11.8485 10.281 11.7783 10.249 11.7002C10.2171 11.6222 10.2024 11.5381 10.2061 11.4539V11.2127C10.2061 8.30738 13.6055 7.79078 13.6055 6.65796C13.6066 6.54937 13.5849 6.44177 13.5418 6.34209C13.4987 6.2424 13.4352 6.15287 13.3553 6.07925C13.2755 6.00563 13.1811 5.94957 13.0783 5.91468C12.9755 5.8798 12.8665 5.86686 12.7583 5.87671C12.6003 5.8814 12.4448 5.91789 12.3012 5.984C12.1575 6.05011 12.0287 6.14448 11.9224 6.26148C11.6475 6.52515 11.3614 6.63548 11.0645 6.39332L10.6353 6.0525C10.3271 5.81031 10.25 5.53492 10.481 5.23805C10.7667 4.86067 11.1384 4.55699 11.5651 4.35231C11.9919 4.14762 12.4614 4.04785 12.9346 4.06129C13.2719 4.02948 13.6122 4.06787 13.9339 4.17405C14.2557 4.28022 14.552 4.45187 14.8041 4.6782C15.0563 4.90452 15.2588 5.18061 15.399 5.48907C15.5392 5.79753 15.614 6.13168 15.6187 6.47047C15.6187 8.92359 12.4395 9.39723 12.3403 10.409H15.1348C15.2167 10.3985 15.3 10.4069 15.3782 10.4337C15.4564 10.4604 15.5275 10.5047 15.5859 10.5631C15.6443 10.6216 15.6886 10.6927 15.7152 10.7709C15.7419 10.8491 15.7503 10.9324 15.7397 11.0144ZM8 0.199951C7.86867 0.199917 7.73862 0.22576 7.61728 0.276002C7.49593 0.326245 7.38568 0.399903 7.29282 0.492768C7.19995 0.585634 7.12629 0.695886 7.07605 0.817227C7.02581 0.938568 6.99997 1.06862 7 1.19995V5.19995H2V1.19995C2 0.934735 1.89464 0.680381 1.70711 0.492844C1.51957 0.305308 1.26522 0.199951 1 0.199951C0.734784 0.199951 0.48043 0.305308 0.292893 0.492844C0.105357 0.680381 0 0.934735 0 1.19995V11.2C0 11.4652 0.105357 11.7195 0.292893 11.9071C0.48043 12.0946 0.734784 12.2 1 12.2C1.26522 12.2 1.51957 12.0946 1.70711 11.9071C1.89464 11.7195 2 11.4652 2 11.2V7.19995H7V11.2C7 11.4652 7.10536 11.7195 7.29289 11.9071C7.48043 12.0946 7.73478 12.2 8 12.2C8.26522 12.2 8.51957 12.0946 8.70711 11.9071C8.89464 11.7195 9 11.4652 9 11.2V1.19995C9.00003 1.06862 8.97419 0.938568 8.92395 0.817227C8.87371 0.695886 8.80005 0.585634 8.70718 0.492768C8.61432 0.399903 8.50406 0.326245 8.38272 0.276002C8.26138 0.22576 8.13133 0.199917 8 0.199951Z" fill="#444444"/>
</svg>
