<svg width="14" height="15" viewBox="0 0 14 15" fill="none" xmlns="http://www.w3.org/2000/svg">
<path d="M5 5.19995L9 9.19995" stroke="#444444" stroke-width="2" stroke-linecap="round" stroke-linejoin="round"/>
<path fill-rule="evenodd" clip-rule="evenodd" d="M6.89984 2.77698C7.53356 3.37091 7.92198 4.18058 7.98861 5.04656C8.05523 5.91254 7.79525 6.77209 7.25984 7.45598C6.57615 7.99304 5.71603 8.25439 4.84912 8.18849C3.98222 8.12259 3.17149 7.73422 2.57684 7.09998C1.18484 5.69998 0.0348418 4.59998 2.21684 2.41698C4.39884 0.23398 5.49984 1.38498 6.89984 2.77698Z" stroke="#444444" stroke-width="2" stroke-linecap="round" stroke-linejoin="round"/>
<path fill-rule="evenodd" clip-rule="evenodd" d="M11.4229 7.29994C10.829 6.66622 10.0193 6.2778 9.15332 6.21118C8.28733 6.14455 7.42778 6.40453 6.7439 6.93994C6.20849 7.62383 5.9485 8.48338 6.01513 9.34936C6.08176 10.2153 6.47017 11.025 7.1039 11.6189C8.4959 13.0109 9.6039 14.1609 11.7829 11.9789C13.9619 9.79694 12.8149 8.69994 11.4229 7.29994Z" stroke="#444444" stroke-width="2" stroke-linecap="round" stroke-linejoin="round"/>
</svg>
