<svg width="20" height="19" viewBox="0 0 20 19" fill="none" xmlns="http://www.w3.org/2000/svg">
<path d="M14 6C15.5913 6 17.1174 6.6321 18.2426 7.7574C19.3679 8.8826 20 10.4087 20 12V18C20 18.5523 19.5523 19 19 19H17C16.4477 19 16 18.5523 16 18V12C16 11.4696 15.7893 10.9609 15.4142 10.5858C15.0391 10.2107 14.5304 10 14 10C13.4696 10 12.9609 10.2107 12.5858 10.5858C12.2107 10.9609 12 11.4696 12 12V18C12 18.5523 11.5523 19 11 19H9C8.4477 19 8 18.5523 8 18V12C8 10.4087 8.6321 8.8826 9.7574 7.7574C10.8826 6.6321 12.4087 6 14 6Z" fill="#0E76A8"/>
<path d="M3 7H1C0.4477 7 0 7.4477 0 8V18C0 18.5523 0.4477 19 1 19H3C3.5523 19 4 18.5523 4 18V8C4 7.4477 3.5523 7 3 7Z" fill="#0E76A8"/>
<path d="M2 4C3.1046 4 4 3.1046 4 2C4 0.8954 3.1046 0 2 0C0.8954 0 0 0.8954 0 2C0 3.1046 0.8954 4 2 4Z" fill="#0E76A8"/>
</svg>
