<svg width="24" height="24" viewBox="0 0 24 24" fill="none" xmlns="http://www.w3.org/2000/svg">
<path d="M20.45 20.45H16.89V14.88C16.89 13.55 16.89 11.88 15.04 11.88C13.19 11.88 12.91 13.32 12.91 14.81V20.48H9.35V9.00002H12.76V10.56H12.81C13.1525 9.97623 13.6466 9.49602 14.2399 9.17031C14.8332 8.84461 15.5036 8.68555 16.18 8.71002C19.78 8.71002 20.45 11.08 20.45 14.17V20.45ZM5.34 7.43001C4.93257 7.43001 4.53429 7.3092 4.19553 7.08284C3.85676 6.85649 3.59272 6.53476 3.43681 6.15834C3.28089 5.78193 3.2401 5.36773 3.31958 4.96813C3.39907 4.56853 3.59526 4.20147 3.88336 3.91338C4.17146 3.62528 4.53851 3.42908 4.93811 3.3496C5.33772 3.27011 5.75191 3.31091 6.12833 3.46682C6.50474 3.62274 6.82647 3.88678 7.05283 4.22554C7.27918 4.56431 7.4 4.96258 7.4 5.37001C7.4 5.91636 7.18296 6.44033 6.79664 6.82665C6.41032 7.21298 5.88635 7.43001 5.34 7.43001ZM7.12 20.43H3.56V9.00002H7.12V20.43ZM22.23 1.49523e-05H1.77C1.54018 -0.00262654 1.3121 0.0400275 1.09876 0.125541C0.885433 0.211055 0.691035 0.337754 0.526672 0.498402C0.362309 0.65905 0.231201 0.850502 0.140834 1.06182C0.0504671 1.27314 0.00261148 1.5002 0 1.73001L0 22.27C0.00261148 22.4998 0.0504671 22.7269 0.140834 22.9382C0.231201 23.1495 0.362309 23.341 0.526672 23.5016C0.691035 23.6623 0.885433 23.789 1.09876 23.8745C1.3121 23.96 1.54018 24.0027 1.77 24H22.22C22.4507 24.004 22.6798 23.9623 22.8943 23.8774C23.1088 23.7925 23.3044 23.666 23.4698 23.5052C23.6352 23.3444 23.7672 23.1525 23.8582 22.9405C23.9492 22.7286 23.9974 22.5007 24 22.27V1.73001C23.9974 1.49934 23.9492 1.27146 23.8582 1.05948C23.7672 0.847499 23.6352 0.655599 23.4698 0.494819C23.3044 0.334039 23.1088 0.207553 22.8943 0.122636C22.6798 0.0377182 22.4507 -0.00395434 22.22 1.49523e-05H22.23Z" fill="#D8D8D8"/>
</svg>
