<svg width="18" height="19" viewBox="0 0 18 19" fill="none" xmlns="http://www.w3.org/2000/svg">
<path d="M7 4.19995H15" stroke="#444444" stroke-width="2" stroke-linecap="round" stroke-linejoin="round"/>
<path d="M7 9.19995H15" stroke="#444444" stroke-width="2" stroke-linecap="round" stroke-linejoin="round"/>
<path d="M7 14.2H15" stroke="#444444" stroke-width="2" stroke-linecap="round" stroke-linejoin="round"/>
<path d="M2.5 5.69995H4.5" stroke="#444444" stroke-linecap="round" stroke-linejoin="round"/>
<path d="M3.50004 6.19992C3.36743 6.19992 3.24025 6.14724 3.14649 6.05348C3.05272 5.95971 3.00004 5.83253 3.00004 5.69992V3.28492L2.72404 3.42292C2.60549 3.48233 2.46819 3.49221 2.34236 3.45039C2.21652 3.40857 2.11245 3.31847 2.05304 3.19992C1.92904 2.95292 2.03004 2.87592 2.27704 2.75292L3.27704 2.25292C3.35323 2.21496 3.43785 2.19707 3.52289 2.20096C3.60793 2.20485 3.69057 2.23039 3.76297 2.27516C3.83538 2.31992 3.89516 2.38243 3.93664 2.45677C3.97813 2.5311 3.99995 2.6148 4.00004 2.69992V5.69992C4.00004 5.83253 3.94736 5.95971 3.85359 6.05348C3.75982 6.14724 3.63265 6.19992 3.50004 6.19992Z" fill="#444444"/>
<path d="M4.5 10.7H2.5C2.5 10.466 4.35 9.624 4.35 8.466C4.30778 8.25895 4.19835 8.07163 4.03872 7.93317C3.87909 7.79471 3.6782 7.71284 3.46726 7.7003C3.25632 7.68776 3.04714 7.74524 2.87222 7.86381C2.69731 7.98238 2.56646 8.15541 2.5 8.356" stroke="#444444" stroke-linecap="round" stroke-linejoin="round"/>
<path d="M2.5 15.0459C2.56637 15.2465 2.69713 15.4196 2.87197 15.5382C3.04681 15.6569 3.25594 15.7145 3.46687 15.702C3.6778 15.6896 3.87872 15.6079 4.03842 15.4695C4.19811 15.3311 4.30765 15.1439 4.35 14.9369C4.36107 14.7611 4.30545 14.5876 4.19423 14.451C4.08302 14.3144 3.92439 14.2247 3.75 14.1999C3.92542 14.1778 4.08561 14.0891 4.19733 13.952C4.30905 13.815 4.36372 13.6402 4.35 13.4639C4.30765 13.2569 4.19811 13.0697 4.03842 12.9313C3.87872 12.793 3.6778 12.7112 3.46687 12.6988C3.25594 12.6864 3.04681 12.744 2.87197 12.8626C2.69713 12.9812 2.56637 13.1543 2.5 13.3549" stroke="#444444" stroke-linecap="round" stroke-linejoin="round"/>
</svg>
