<svg width="25" height="25" viewBox="0 0 25 25" fill="none" xmlns="http://www.w3.org/2000/svg">
<path d="M2.94612 17.1709C4.67704 18.9043 6.98208 19.9449 9.42699 20.0966C11.8719 20.2483 14.2879 19.5007 16.2199 17.9947L22.8674 24.6422C23.1031 24.8699 23.4189 24.9959 23.7466 24.993C24.0744 24.9902 24.3879 24.8587 24.6196 24.627C24.8514 24.3952 24.9829 24.0817 24.9857 23.7539C24.9886 23.4262 24.8626 23.1104 24.6349 22.8747L17.9874 16.2272C19.5602 14.2086 20.3039 11.6661 20.0666 9.11815C19.8293 6.57018 18.629 4.20868 16.7105 2.51527C14.7919 0.821853 12.2997 -0.0759217 9.74195 0.00503538C7.18423 0.0859925 4.75373 1.13958 2.94612 2.95094C2.01212 3.88447 1.2712 4.99287 0.765691 6.21283C0.260185 7.43279 0 8.74039 0 10.0609C0 11.3815 0.260185 12.6891 0.765691 13.909C1.2712 15.129 2.01212 16.2374 2.94612 17.1709ZM4.71362 4.72094C5.94934 3.48525 7.57527 2.71624 9.3144 2.54493C11.0535 2.37363 12.7983 2.81062 14.2513 3.78147C15.7044 4.75231 16.7759 6.19693 17.2832 7.86921C17.7906 9.54148 17.7025 11.3379 17.0338 12.9525C16.3652 14.5671 15.1574 15.8999 13.6163 16.7238C12.0752 17.5477 10.296 17.8118 8.58202 17.4711C6.86801 17.1303 5.32517 16.2058 4.21636 14.8551C3.10756 13.5044 2.50138 11.811 2.50112 10.0634C2.49769 9.07041 2.6915 8.08658 3.0713 7.16904C3.45111 6.2515 4.00934 5.41852 4.71362 4.71844V4.72094Z" fill="#A1A1A1"/>
</svg>
