<svg width="13" height="14" viewBox="0 0 13 14" fill="none" xmlns="http://www.w3.org/2000/svg">
<path d="M10.0013 9.49676C9.73188 9.49666 9.46528 9.55116 9.21758 9.65696C8.96988 9.76276 8.74618 9.91766 8.55998 10.1124L3.935 7.51016C4.02458 7.17373 4.02458 6.81972 3.935 6.48329L8.55998 3.8811C8.89678 4.23027 9.34928 4.44466 9.83288 4.48412C10.3164 4.52358 10.7977 4.3854 11.1866 4.09545C11.5756 3.80551 11.8455 3.3837 11.9457 2.90905C12.046 2.43441 11.9698 1.93949 11.7313 1.51701C11.4929 1.09453 11.1086 0.773494 10.6504 0.614024C10.1922 0.454564 9.69158 0.467614 9.24238 0.650744C8.79318 0.833864 8.42608 1.1745 8.20998 1.60883C7.9939 2.04316 7.94357 2.54138 8.06848 3.01016L3.44343 5.61235C3.16717 5.3243 2.81104 5.12549 2.42085 5.0415C2.03067 4.95752 1.62428 4.9922 1.25397 5.14107C0.88365 5.28995 0.56635 5.54622 0.34288 5.87692C0.11941 6.20761 0 6.5976 0 6.99672C0 7.39584 0.11941 7.78584 0.34288 8.11653C0.56635 8.44722 0.88365 8.70349 1.25397 8.85237C1.62428 9.00126 2.03067 9.03596 2.42085 8.95194C2.81104 8.86796 3.16717 8.66915 3.44343 8.3811L8.06848 10.9833C7.9612 11.387 7.98306 11.8142 8.13098 12.2048C8.27888 12.5955 8.54528 12.93 8.89298 13.1615C9.24068 13.393 9.65218 13.5098 10.0696 13.4956C10.4871 13.4814 10.8896 13.3368 11.2207 13.0821C11.5518 12.8274 11.7949 12.4755 11.9158 12.0757C12.0367 11.6758 12.0294 11.2482 11.8949 10.8527C11.7604 10.4573 11.5054 10.1139 11.1658 9.87066C10.8262 9.62746 10.419 9.49666 10.0013 9.49676Z" fill="#A5ADBF"/>
</svg>
