<svg width="14" height="13" viewBox="0 0 14 13" fill="none" xmlns="http://www.w3.org/2000/svg">
<path d="M13.5 5.69995L0.5 6.69995" stroke="#444444" stroke-linecap="round" stroke-linejoin="round"/>
<path d="M7.00737 5.19995C4.54237 4.99095 4.00037 4.71895 4.00037 3.69995C4.00037 2.99195 5.28337 2.19995 7.00037 2.19995C8.57137 2.19995 9.76537 2.87895 9.96937 3.50895C10.0604 3.74914 10.2404 3.9451 10.472 4.05619C10.7036 4.16729 10.969 4.18501 11.2133 4.10567C11.4576 4.02634 11.662 3.85603 11.7842 3.63007C11.9063 3.4041 11.9368 3.1398 11.8694 2.89195C11.3564 1.30595 9.35437 0.199951 7.00037 0.199951C4.20037 0.199951 2.00037 1.73795 2.00037 3.69995C1.97557 4.35085 2.15001 4.99383 2.50037 5.54295L7.00737 5.19995Z" fill="#444444"/>
<path d="M6.98431 7.19993C9.45731 7.40793 10.0003 7.67893 10.0003 8.69993C10.0003 9.40793 8.71731 10.1999 7.00031 10.1999C5.42931 10.1999 4.23531 9.52093 4.03131 8.89093C3.99575 8.7603 3.93405 8.63825 3.84992 8.53217C3.7658 8.4261 3.66101 8.33821 3.54191 8.27383C3.42281 8.20946 3.29188 8.16994 3.15705 8.15766C3.02223 8.14539 2.88631 8.16062 2.75755 8.20244C2.62878 8.24425 2.50985 8.31178 2.40795 8.40092C2.30606 8.49007 2.22333 8.59897 2.16478 8.72104C2.10622 8.84311 2.07306 8.97579 2.06731 9.11105C2.06156 9.24631 2.08333 9.38134 2.13131 9.50793C2.64431 11.0939 4.64631 12.1999 7.00031 12.1999C9.80031 12.1999 12.0003 10.6619 12.0003 8.69993C12.0251 8.04903 11.8507 7.40606 11.5003 6.85693L6.98431 7.19993Z" fill="#444444"/>
</svg>
