<svg width="24" height="20" viewBox="0 0 24 20" fill="none" xmlns="http://www.w3.org/2000/svg">
<path d="M7.54792 20C16.6051 20 21.5613 12.3061 21.5613 5.63114C21.5613 5.41092 21.5565 5.19346 21.5468 4.97876C22.5093 4.26459 23.3399 3.3804 24 2.36758C23.1017 2.77642 22.1484 3.04423 21.1723 3.162C22.2002 2.53098 22.9697 1.53888 23.338 0.36998C22.3723 0.957252 21.3161 1.37167 20.2148 1.59546C19.4727 0.784418 18.4906 0.246962 17.4204 0.0663818C16.3503 -0.114198 15.2519 0.0721821 14.2955 0.59664C13.3392 1.1211 12.5782 1.95435 12.1306 2.96726C11.683 3.98018 11.5736 5.1162 11.8196 6.19928C9.86196 6.09877 7.94683 5.57717 6.19859 4.66836C4.45034 3.75954 2.90807 2.48384 1.67195 0.92409C1.04208 2.03558 0.848963 3.3514 1.1319 4.60374C1.41483 5.85607 2.15255 6.95079 3.1949 7.66507C2.41351 7.6402 1.64932 7.42356 0.966443 7.03334C0.966443 7.05481 0.966443 7.07546 0.966443 7.09775C0.966458 8.26284 1.35938 9.39209 2.07862 10.2941C2.79785 11.196 3.79914 11.8153 4.91275 12.0468C4.49003 12.1639 4.05399 12.2227 3.61611 12.2218C3.3055 12.2217 2.99563 12.191 2.69074 12.1302C3.00454 13.1341 3.61666 14.0123 4.44141 14.6417C5.26616 15.2712 6.26224 15.6205 7.2902 15.6406C5.54587 17.0444 3.39166 17.8056 1.17423 17.8017C0.781811 17.8021 0.389715 17.7787 0 17.7315C2.25128 19.2153 4.87169 20.0028 7.54792 20Z" fill="#D8D8D8"/>
</svg>
