<svg width="24" height="19" viewBox="0 0 24 19" fill="none" xmlns="http://www.w3.org/2000/svg">
<path d="M22.9299 3.88C23.0011 3.8208 23.0545 3.7431 23.0841 3.6554C23.1137 3.5678 23.1184 3.4736 23.0976 3.3834C23.0769 3.2932 23.0316 3.2106 22.9666 3.1447C22.9017 3.0787 22.8198 3.0321 22.7299 3.01L21.9399 2.81C21.8681 2.792 21.8012 2.7583 21.744 2.7113C21.6867 2.6642 21.6407 2.6051 21.6091 2.5381C21.5775 2.4712 21.5612 2.398 21.5614 2.324C21.5615 2.2499 21.5781 2.1768 21.6099 2.11L22.0499 1.22C22.0915 1.1337 22.1074 1.0374 22.0959 0.942301C22.0843 0.847301 22.0456 0.757601 21.9845 0.683901C21.9235 0.610101 21.8425 0.555501 21.7513 0.526501C21.6601 0.497401 21.5624 0.4951 21.4699 0.52L19.4699 1.08C19.3954 1.1017 19.3169 1.1058 19.2405 1.0919C19.1641 1.078 19.092 1.0465 19.0299 1C18.1645 0.3508 17.1118 0 16.0299 0C14.7039 0 13.4321 0.5267 12.4944 1.4644C11.5567 2.4021 11.0299 3.6739 11.0299 5V5.36C11.0304 5.4214 11.0082 5.4808 10.9676 5.5269C10.9271 5.573 10.8709 5.6026 10.8099 5.61C7.99988 5.94 5.30988 4.51 2.40988 1.17C2.34688 1.1005 2.26598 1.0497 2.17598 1.0233C2.08608 0.9968 1.99048 0.9957 1.89988 1.02C1.81828 1.0575 1.74828 1.1163 1.69728 1.1902C1.64628 1.2641 1.61608 1.3504 1.60988 1.44C1.20938 3.0853 1.37128 4.8174 2.06988 6.36C2.09058 6.4009 2.09958 6.4467 2.09598 6.4924C2.09238 6.5381 2.07628 6.5819 2.04948 6.6191C2.02258 6.6562 1.98608 6.6853 1.94378 6.7031C1.90158 6.7209 1.85528 6.7267 1.80988 6.72L0.689883 6.5C0.610383 6.4872 0.528983 6.4938 0.452483 6.5193C0.376083 6.5447 0.306883 6.5883 0.250983 6.6462C0.194983 6.7042 0.153883 6.7748 0.130983 6.852C0.108183 6.9293 0.104383 7.0109 0.119883 7.09C0.206283 7.8574 0.464083 8.5956 0.874383 9.2499C1.28458 9.9042 1.83678 10.4579 2.48988 10.87C2.53218 10.8904 2.56788 10.9224 2.59278 10.9622C2.61768 11.002 2.63098 11.048 2.63098 11.095C2.63098 11.1419 2.61768 11.1879 2.59278 11.2277C2.56788 11.2675 2.53218 11.2995 2.48988 11.32L1.95988 11.53C1.89558 11.5558 1.83728 11.5947 1.78878 11.6442C1.74018 11.6938 1.70258 11.7529 1.67808 11.8177C1.65368 11.8826 1.64298 11.9519 1.64668 12.0212C1.65048 12.0904 1.66858 12.1581 1.69988 12.22C1.99298 12.8613 2.43728 13.422 2.99458 13.8539C3.55198 14.2858 4.20578 14.5762 4.89988 14.7C4.94818 14.7175 4.98988 14.7494 5.01938 14.7915C5.04878 14.8335 5.06458 14.8836 5.06458 14.935C5.06458 14.9863 5.04878 15.0364 5.01938 15.0784C4.98988 15.1205 4.94818 15.1524 4.89988 15.17C3.54028 15.7323 2.08118 16.0146 0.609883 16C0.477283 15.9734 0.339583 16.0007 0.227083 16.0757C0.114583 16.1507 0.0364828 16.2674 0.00988283 16.4C-0.0166172 16.5326 0.0106828 16.6703 0.0856828 16.7828C0.160683 16.8953 0.277283 16.9734 0.409883 17C2.95748 18.2082 5.73108 18.8658 8.54988 18.93C11.0294 18.9678 13.4647 18.272 15.5499 16.93C17.2652 15.785 18.6705 14.2335 19.6406 12.4136C20.6107 10.5938 21.1155 8.5622 21.1099 6.5V5.63C21.1106 5.5573 21.127 5.4857 21.1581 5.4201C21.1891 5.3545 21.2342 5.2964 21.2899 5.25L22.9299 3.88Z" fill="#00ACEE"/>
</svg>
