<svg width="16" height="16" viewBox="0 0 16 16" fill="none" xmlns="http://www.w3.org/2000/svg">
<path d="M15.1466 6.89999L13.9199 5.91332C13.8215 5.83481 13.7452 5.73209 13.6985 5.61523C13.6517 5.49836 13.6361 5.37136 13.6532 5.24666L13.8199 3.68666C13.8431 3.47937 13.8194 3.26953 13.7506 3.07262C13.6818 2.87571 13.5697 2.69675 13.4225 2.54895C13.2754 2.40114 13.0969 2.28826 12.9003 2.21864C12.7037 2.14901 12.494 2.12441 12.2866 2.14666L10.7199 2.31332C10.5952 2.33042 10.4682 2.31483 10.3513 2.26808C10.2345 2.22134 10.1318 2.14504 10.0532 2.04666L9.08661 0.839991C8.95144 0.684533 8.78449 0.559886 8.59702 0.474468C8.40956 0.38905 8.20595 0.344849 7.99995 0.344849C7.79394 0.344849 7.59033 0.38905 7.40287 0.474468C7.21541 0.559886 7.04845 0.684533 6.91328 0.839991L5.92661 2.06666C5.8481 2.16504 5.74538 2.24134 5.62852 2.28808C5.51165 2.33483 5.38465 2.35042 5.25995 2.33332L3.71328 2.16666C3.50589 2.14441 3.29616 2.16901 3.09955 2.23864C2.90294 2.30826 2.72447 2.42114 2.5773 2.56895C2.43014 2.71675 2.31804 2.89571 2.24926 3.09262C2.18049 3.28953 2.1568 3.49937 2.17995 3.70666L2.34661 5.26666C2.36371 5.39136 2.34812 5.51836 2.30137 5.63523C2.25463 5.75209 2.17833 5.85481 2.07995 5.93332L0.853279 6.89999C0.690594 7.03055 0.5593 7.19597 0.469084 7.38405C0.378867 7.57213 0.332031 7.77806 0.332031 7.98666C0.332031 8.19525 0.378867 8.40119 0.469084 8.58927C0.5593 8.77734 0.690594 8.94277 0.853279 9.07333L2.07995 10.06C2.17782 10.1389 2.25376 10.2417 2.30045 10.3585C2.34715 10.4752 2.36305 10.602 2.34661 10.7267L2.17995 12.2933C2.15684 12.5002 2.18082 12.7096 2.25009 12.9058C2.31936 13.1021 2.43213 13.2801 2.57995 13.4267C2.72436 13.5774 2.90214 13.6921 3.09899 13.7616C3.29584 13.8311 3.50625 13.8534 3.71328 13.8267L5.27995 13.66C5.40465 13.6429 5.53165 13.6585 5.64852 13.7052C5.76538 13.752 5.8681 13.8283 5.94661 13.9267L6.93328 15.1533C7.06384 15.316 7.22926 15.4473 7.41734 15.5375C7.60542 15.6277 7.81135 15.6746 8.01995 15.6746C8.22854 15.6746 8.43448 15.6277 8.62255 15.5375C8.81063 15.4473 8.97605 15.316 9.10661 15.1533L10.0932 13.9267C10.1718 13.8283 10.2745 13.752 10.3913 13.7052C10.5082 13.6585 10.6352 13.6429 10.7599 13.66L12.3266 13.8267C12.5336 13.8534 12.744 13.8311 12.9409 13.7616C13.1377 13.6921 13.3155 13.5774 13.4599 13.4267C13.6077 13.2801 13.7205 13.1021 13.7898 12.9058C13.859 12.7096 13.883 12.5002 13.8599 12.2933L13.6932 10.7267C13.6768 10.602 13.6927 10.4752 13.7394 10.3585C13.7861 10.2417 13.862 10.1389 13.9599 10.06L15.1866 9.07333C15.3493 8.94277 15.4806 8.77734 15.5708 8.58927C15.661 8.40119 15.7078 8.19525 15.7078 7.98666C15.7078 7.77806 15.661 7.57213 15.5708 7.38405C15.4806 7.19597 15.3493 7.03055 15.1866 6.89999H15.1466ZM8.26661 10.0333C8.16388 10.167 8.03399 10.2774 7.88549 10.3573C7.73699 10.4371 7.57325 10.4846 7.40507 10.4966C7.23689 10.5085 7.06808 10.4847 6.90977 10.4267C6.75146 10.3687 6.60724 10.2778 6.48661 10.16L4.85995 8.53333C4.79779 8.47117 4.74848 8.39737 4.71484 8.31616C4.6812 8.23494 4.66389 8.1479 4.66389 8.05999C4.66389 7.97209 4.6812 7.88504 4.71484 7.80383C4.74848 7.72261 4.79779 7.64882 4.85995 7.58666C4.92211 7.5245 4.9959 7.47519 5.07711 7.44155C5.15833 7.40791 5.24537 7.3906 5.33328 7.3906C5.42119 7.3906 5.50823 7.40791 5.58945 7.44155C5.67066 7.47519 5.74445 7.5245 5.80661 7.58666L7.33328 9.08666L9.93995 5.61333C10.046 5.47188 10.2039 5.37836 10.379 5.35336C10.4656 5.34098 10.5539 5.34579 10.6387 5.36752C10.7235 5.38924 10.8032 5.42746 10.8732 5.47999C10.9433 5.53252 11.0023 5.59833 11.0469 5.67366C11.0915 5.749 11.1208 5.83238 11.1332 5.91904C11.1456 6.00571 11.1408 6.09397 11.119 6.17878C11.0973 6.26359 11.0591 6.34329 11.0066 6.41333L8.26661 10.0333Z" fill="#0047B0"/>
</svg>
