<svg width="21" height="20" viewBox="0 0 21 20" fill="none" xmlns="http://www.w3.org/2000/svg">
<g clip-path="url(#clip0_26_263)">
<path fill-rule="evenodd" clip-rule="evenodd" d="M20.1 10.2273C20.1 9.51819 20.0364 8.83638 19.9182 8.18183H10.5V12.05H15.8818C15.65 13.3 14.9455 14.3591 13.8864 15.0682V17.5773H17.1182C19.0091 15.8364 20.1 13.2727 20.1 10.2273Z" fill="#4285F4"/>
<path fill-rule="evenodd" clip-rule="evenodd" d="M10.5001 20C13.2001 20 15.4637 19.1045 17.1183 17.5773L13.8864 15.0682C12.991 15.6682 11.8455 16.0227 10.5001 16.0227C7.89554 16.0227 5.69099 14.2636 4.90463 11.9H1.56372V14.4909C3.20918 17.7591 6.59099 20 10.5001 20Z" fill="#34A853"/>
<path fill-rule="evenodd" clip-rule="evenodd" d="M4.90455 11.9C4.70455 11.3 4.59091 10.6591 4.59091 10C4.59091 9.34092 4.70455 8.70001 4.90455 8.10001V5.5091H1.56364C0.886364 6.8591 0.5 8.38637 0.5 10C0.5 11.6136 0.886364 13.1409 1.56364 14.4909L4.90455 11.9Z" fill="#FBBC05"/>
<path fill-rule="evenodd" clip-rule="evenodd" d="M10.5001 3.97727C11.9683 3.97727 13.2864 4.48182 14.3228 5.47273L17.191 2.60455C15.4592 0.990909 13.1955 0 10.5001 0C6.59099 0 3.20918 2.24091 1.56372 5.50909L4.90463 8.1C5.69099 5.73636 7.89554 3.97727 10.5001 3.97727Z" fill="#EA4335"/>
</g>
<defs>
<clipPath id="clip0_26_263">
<rect width="20" height="20" fill="white" transform="translate(0.5)"/>
</clipPath>
</defs>
</svg>
