<svg width="21" height="20" viewBox="0 0 21 20" fill="none" xmlns="http://www.w3.org/2000/svg">
<path d="M18.6437 15.5861C18.3385 16.2848 17.9772 16.928 17.5586 17.5193C16.9881 18.3255 16.5209 18.8835 16.1609 19.1934C15.6027 19.702 15.0048 19.9625 14.3644 19.9773C13.9047 19.9773 13.3504 19.8477 12.705 19.5847C12.0576 19.323 11.4626 19.1934 10.9186 19.1934C10.348 19.1934 9.73608 19.323 9.08155 19.5847C8.42602 19.8477 7.89793 19.9847 7.49417 19.9983C6.88012 20.0242 6.26806 19.7563 5.65713 19.1934C5.2672 18.8563 4.77947 18.2786 4.1952 17.4601C3.56832 16.586 3.05294 15.5725 2.64918 14.417C2.21677 13.1689 2 11.9603 2 10.7902C2 9.44984 2.29226 8.29383 2.87766 7.32509C3.33773 6.54696 3.94978 5.93316 4.71581 5.48255C5.48185 5.03195 6.30955 4.80233 7.20091 4.78763C7.68863 4.78763 8.32822 4.93714 9.12303 5.23096C9.9156 5.52576 10.4245 5.67526 10.6476 5.67526C10.8144 5.67526 11.3798 5.50045 12.3382 5.15195C13.2445 4.82874 14.0094 4.69492 14.636 4.74764C16.334 4.88343 17.6097 5.54675 18.4581 6.74177C16.9395 7.6536 16.1883 8.93072 16.2032 10.5691C16.2169 11.8452 16.6841 12.9071 17.6022 13.7503C18.0183 14.1417 18.483 14.4441 19 14.6589C18.8879 14.9812 18.7695 15.2898 18.6437 15.5861ZM14.7494 0.400114C14.7494 1.40034 14.3806 2.33425 13.6456 3.19867C12.7586 4.22629 11.6857 4.8201 10.5223 4.7264C10.5075 4.60641 10.4989 4.48011 10.4989 4.3474C10.4989 3.38718 10.9207 2.35956 11.6698 1.51934C12.0438 1.09392 12.5194 0.74019 13.0962 0.458013C13.6718 0.180046 14.2162 0.0263242 14.7282 0C14.7431 0.133715 14.7494 0.267438 14.7494 0.400101V0.400114Z" fill="black"/>
</svg>
