<svg width="232" height="232" viewBox="0 0 232 232" fill="none" xmlns="http://www.w3.org/2000/svg">
<mask id="mask0_6_44" style="mask-type:luminance" maskUnits="userSpaceOnUse" x="16" y="19" width="107" height="190">
<path d="M16.7547 19.9786H122.496V208.491H16.7547V19.9786Z" fill="white"/>
</mask>
<g mask="url(#mask0_6_44)">
<path d="M68.15 179.781C48.082 165.682 34.9402 142.361 34.9402 116.027C34.9402 73.0921 69.8682 38.1616 112.803 38.1616C115.879 38.1616 118.912 38.3428 121.894 38.6908V20.4015C118.888 20.1212 115.857 19.9786 112.803 19.9786C99.8397 19.9786 87.261 22.5185 75.4145 27.5307C63.9764 32.3688 53.7056 39.2926 44.8872 48.111C36.0687 56.927 29.145 67.1978 24.3068 78.6359C19.2971 90.4848 16.7547 103.064 16.7547 116.027C16.7547 128.99 19.2971 141.568 24.3068 153.415C29.145 164.853 36.0687 175.124 44.8872 183.942C53.7056 192.761 63.9764 199.684 75.4145 204.523C78.9912 206.035 82.6355 207.321 86.3354 208.382V109.738H68.15V179.781Z" fill="#E6E6E6"/>
</g>
<path d="M103.711 166.209H121.894V65.8421H103.711V166.209Z" fill="#439196"/>
<mask id="mask1_6_44" style="mask-type:luminance" maskUnits="userSpaceOnUse" x="103" y="23" width="106" height="190">
<path d="M103.317 23.5093H208.851V212.075H103.317V23.5093Z" fill="white"/>
</mask>
<g mask="url(#mask1_6_44)">
<path d="M201.299 78.6359C196.46 67.1978 189.537 56.927 180.718 48.111C171.902 39.2926 161.629 32.3688 150.191 27.5307C146.614 26.0178 142.972 24.7322 139.27 23.6712V122.315H157.455V52.2725C177.526 66.3713 190.668 89.6922 190.668 116.027C190.668 158.961 155.737 193.889 112.803 193.889C109.729 193.889 106.693 193.71 103.711 193.36V211.649C106.718 211.932 109.751 212.075 112.803 212.075C125.766 212.075 138.344 209.532 150.191 204.523C161.629 199.684 171.902 192.761 180.718 183.942C189.537 175.124 196.46 164.853 201.299 153.415C206.311 141.568 208.851 128.99 208.851 116.027C208.851 103.064 206.311 90.4848 201.299 78.6359Z" fill="#233DFF"/>
</g>
</svg>
