<svg width="19" height="16" viewBox="0 0 19 16" fill="none" xmlns="http://www.w3.org/2000/svg">
<path d="M17.0475 3.98396C17.0552 4.15996 17.0552 4.32796 17.0552 4.50396C17.063 9.83998 13.1426 16 5.97319 16C3.85865 16 1.7827 15.368 0 14.184C0.308692 14.224 0.617384 14.24 0.926076 14.24C2.6779 14.24 4.38343 13.632 5.76483 12.504C4.09789 12.472 2.6316 11.344 2.12226 9.69598C2.70877 9.81598 3.31072 9.79198 3.8818 9.62398C2.06824 9.25598 0.764013 7.59997 0.756296 5.67197C0.756296 5.65597 0.756296 5.63997 0.756296 5.62397C1.29651 5.93597 1.90617 6.11197 2.52356 6.12797C0.818034 4.94396 0.28554 2.58396 1.31966 0.735951C3.30301 3.26396 6.22015 4.79196 9.35337 4.95996C9.03696 3.55996 9.46913 2.08796 10.4801 1.09595C12.0467 -0.432053 14.5162 -0.352052 15.998 1.27195C16.87 1.09595 17.7112 0.759951 18.4752 0.28795C18.182 1.22395 17.5723 2.01596 16.762 2.51996C17.5337 2.42396 18.29 2.20796 19 1.88795C18.4752 2.70396 17.8115 3.40796 17.0475 3.98396Z" fill="#1D9BF0"/>
</svg>
